<svg viewBox="0 0 200 200" xmlns="http://www.w3.org/2000/svg">
  <!-- Background circle -->
  <circle cx="100" cy="100" r="95" fill="#6366f1" opacity="0.1"/>
  
  <!-- Outer frame -->
  <rect x="40" y="40" width="120" height="120" rx="8" fill="none" stroke="#6366f1" stroke-width="3"/>
  
  <!-- Gallery grid frames -->
  <rect x="50" y="50" width="42" height="42" rx="4" fill="none" stroke="#6366f1" stroke-width="2.5"/>
  <rect x="108" y="50" width="42" height="42" rx="4" fill="none" stroke="#8b5cf6" stroke-width="2.5"/>
  <rect x="50" y="108" width="42" height="42" rx="4" fill="none" stroke="#8b5cf6" stroke-width="2.5"/>
  <rect x="108" y="108" width="42" height="42" rx="4" fill="none" stroke="#a78bfa" stroke-width="2.5"/>
  
  <!-- Image icons inside frames -->
  <!-- Top left frame -->
  <circle cx="71" cy="68" r="6" fill="#6366f1" opacity="0.6"/>
  <path d="M 55 85 L 65 72 L 75 82 L 87 65" stroke="#6366f1" stroke-width="2" fill="none" stroke-linecap="round" stroke-linejoin="round"/>
  
  <!-- Top right frame -->
  <circle cx="129" cy="68" r="6" fill="#8b5cf6" opacity="0.6"/>
  <path d="M 113 85 L 123 72 L 133 82 L 145 65" stroke="#8b5cf6" stroke-width="2" fill="none" stroke-linecap="round" stroke-linejoin="round"/>
  
  <!-- Bottom left frame -->
  <circle cx="71" cy="126" r="6" fill="#8b5cf6" opacity="0.6"/>
  <path d="M 55 143 L 65 130 L 75 140 L 87 123" stroke="#8b5cf6" stroke-width="2" fill="none" stroke-linecap="round" stroke-linejoin="round"/>
  
  <!-- Bottom right frame -->
  <circle cx="129" cy="126" r="6" fill="#a78bfa" opacity="0.6"/>
  <path d="M 113 143 L 123 130 L 133 140 L 145 123" stroke="#a78bfa" stroke-width="2" fill="none" stroke-linecap="round" stroke-linejoin="round"/>
  
  <!-- Connecting dots accent -->
  <circle cx="100" cy="100" r="4" fill="#6366f1"/>
</svg>